<svg width="30" height="30" viewBox="0 0 30 30" fill="none" xmlns="http://www.w3.org/2000/svg">
<g clip-path="url(#clip0_1665_1421)">
<path d="M19.1567 15L24.918 20.6888C26.194 21.8694 26.194 23.6384 24.918 24.9168C23.9356 26.194 21.9721 26.194 20.794 24.9168L15 19.2533L9.30513 24.8177C8.127 26.0961 6.35921 26.0961 5.082 24.8177C3.806 23.8353 3.806 21.8694 5.082 20.6888L10.7346 15L5.18108 9.28579C3.806 8.10646 3.806 6.33746 5.18108 5.15691C5.40024 4.83865 5.69347 4.57843 6.03553 4.39866C6.37758 4.21889 6.75821 4.12497 7.14463 4.12497C7.53104 4.12497 7.91167 4.21889 8.25373 4.39866C8.59578 4.57843 8.88901 4.83865 9.10817 5.15691L15 10.6754L20.6949 5.15691C21.873 3.78062 23.6408 3.78062 24.8189 5.15691C26.0961 6.1405 26.0961 8.10525 24.8189 9.28579L19.1567 15Z" fill="white"/>
</g>
<defs>
<clipPath id="clip0_1665_1421">
<rect width="29" height="29" fill="white" transform="translate(0.5 0.5)"/>
</clipPath>
</defs>
</svg>
