<svg width="28" height="28" viewBox="0 0 28 28" fill="none" xmlns="http://www.w3.org/2000/svg">
<path d="M24.419 10.619L18.1285 9.86001C17.956 9.86001 17.68 9.57251 17.588 9.38851L14.897 3.35101C14.3565 2.21251 13.5515 2.21251 13.103 3.35101L10.4005 9.38851C10.4005 9.57251 10.136 9.84851 9.85996 9.84851L3.56946 10.6075C2.40796 10.6075 2.13196 11.562 3.04046 12.505L7.70946 16.8405C7.88196 17.0245 7.97396 17.4155 7.88196 17.5995L6.63996 24.2005C6.45596 25.3275 7.09996 25.9025 8.16946 25.1435L13.563 21.935H14.46L19.8535 25.2355C20.7505 25.9025 21.6475 25.2355 21.291 24.1085L20.118 17.496C20.118 17.496 20.118 17.036 20.3825 16.8405L24.879 12.4015C25.776 11.4585 25.776 10.5155 24.4305 10.5155V10.6075L24.419 10.619Z" fill="white"/>
</svg>
