<svg width="30" height="32" viewBox="0 0 30 32" fill="none" xmlns="http://www.w3.org/2000/svg">
<g clip-path="url(#clip0_1665_1438)">
<path d="M28.4919 13.4846C28.4919 8.6413 25.2586 5.12254 20.7699 5.12254C18.3669 5.12254 17.0749 5.99348 15.0054 7.99651C12.925 5.99348 11.6317 5.10504 9.23819 5.10504C4.74945 5.10504 1.5 8.63188 1.5 13.4927C1.5 15.5388 2.22495 17.4638 3.56955 18.9795L14.4019 28.8829C14.734 29.1791 15.2754 29.1791 15.598 28.8829L25.3815 20.0255L25.9755 19.4857L26.1942 19.2407L26.421 19.0064C27.7664 17.4868 28.5061 15.5279 28.5 13.5008" fill="white"/>
</g>
<defs>
<clipPath id="clip0_1665_1438">
<rect width="29" height="31.4566" fill="white" transform="translate(0.5 0.271698)"/>
</clipPath>
</defs>
</svg>
